<?xml version="1.0" encoding="utf-8"?>
<!-- Generator: Adobe Illustrator 21.1.0, SVG Export Plug-In . SVG Version: 6.00 Build 0)  -->
<svg version="1.1" id="Capa_1" xmlns="http://www.w3.org/2000/svg" xmlns:xlink="http://www.w3.org/1999/xlink" x="0px" y="0px"
	 viewBox="0 0 25 26.6" style="enable-background:new 0 0 25 26.6;" xml:space="preserve">
<style type="text/css">
	.st0{fill:#BABABA;}
</style>
<path class="st0" d="M19.6,16.5c-1.5,0-2.9,0.7-3.8,1.8L10,14.9c0.2-0.5,0.3-1.1,0.3-1.6c0-0.6-0.1-1.1-0.3-1.6l5.8-3.3
	c0.9,1.1,2.3,1.8,3.8,1.8c2.7,0,4.9-2.2,4.9-4.9s-2.2-4.9-4.9-4.9s-4.9,2.2-4.9,4.9c0,0.6,0.1,1.1,0.3,1.6l-5.8,3.3
	C8.3,9.1,6.9,8.4,5.4,8.4c-2.7,0-4.9,2.2-4.9,4.9s2.2,4.9,4.9,4.9c1.5,0,2.9-0.7,3.8-1.8l5.8,3.3c-0.2,0.5-0.3,1.1-0.3,1.6
	c0,2.7,2.2,4.9,4.9,4.9s4.9-2.2,4.9-4.9C24.5,18.7,22.3,16.5,19.6,16.5z M19.6,2.1c1.8,0,3.2,1.4,3.2,3.2s-1.4,3.2-3.2,3.2
	c-1.8,0-3.2-1.4-3.2-3.2S17.9,2.1,19.6,2.1z M5.4,16.5c-1.8,0-3.2-1.4-3.2-3.2s1.4-3.2,3.2-3.2s3.2,1.4,3.2,3.2S7.1,16.5,5.4,16.5z
	 M19.6,24.6c-1.8,0-3.2-1.4-3.2-3.2c0-1.8,1.4-3.2,3.2-3.2c1.8,0,3.2,1.4,3.2,3.2C22.8,23.1,21.4,24.6,19.6,24.6z"/>
</svg>
