<svg xmlns="http://www.w3.org/2000/svg" xmlns:xlink="http://www.w3.org/1999/xlink" version="1.1" style="" xml:space="preserve" width="18" height="18"><rect id="backgroundrect" width="100%" height="100%" x="0" y="0" fill="none" stroke="none"/>
<style type="text/css">
	.st0{fill:#FFFFFF;}
</style>

<g class="currentLayer" style=""><title>Layer 1</title><g id="svg_1">
	<path class="st0" d="M13,12.2c1-1.2,1.6-3,1.6-4.7c0-3.9-3.2-7-7-7c-3.9,0-7,3.1-7,7c0,3.9,3.2,7,7,7c1.6,0,3.1-0.6,4.3-1.6   l4.3,4.7l1.2-1.2L13,12.2z M7.5,13c-3,0-5.5-2.4-5.5-5.5c0-3,2.5-5.5,5.5-5.5c3,0,5.5,2.4,5.5,5.5C13,10.6,10.5,13,7.5,13L7.5,13z" id="svg_2"/>
</g></g></svg>